<?xml version="1.0" encoding="utf-8"?>
<!-- Generator: Adobe Illustrator 15.1.0, SVG Export Plug-In . SVG Version: 6.00 Build 0)  -->
<!DOCTYPE svg PUBLIC "-//W3C//DTD SVG 1.1//EN" "http://www.w3.org/Graphics/SVG/1.1/DTD/svg11.dtd">
<svg version="1.1" id="_x32_" xmlns="http://www.w3.org/2000/svg" xmlns:xlink="http://www.w3.org/1999/xlink" x="0px" y="0px"
	 width="512px" height="512px" viewBox="0 0 512 512" style="enable-background:new 0 0 512 512;" xml:space="preserve">
<style type="text/css">
<![CDATA[
	.st0{fill:#4B4B4B;}
]]>
</style>
<g>
	<path class="st0" d="M62.234,439.719c0,9.5,7.703,17.203,17.203,17.203h47.531c9.516,0,17.219-7.703,17.219-17.203v-35.406H62.234
		V439.719z"/>
	<path class="st0" d="M367.813,439.719c0,9.5,7.703,17.203,17.219,17.203h47.531c9.5,0,17.203-7.703,17.203-17.203v-35.406h-81.953
		V439.719z"/>
	<path class="st0" d="M456.531,222.656l-24.156-87.578c-13.063-47.266-56.063-80-105.078-80H184.703
		c-49.031,0-92.016,32.734-105.063,80l-24.172,87.578C23.031,235.078,0,266.5,0,303.297c0,47.688,38.656,86.359,86.344,86.359
		h90.766c1.203,4.891,3.688,9.313,7.125,12.719c4.859,4.875,11.703,7.922,19.125,7.922h105.281c7.422,0,14.266-3.047,19.125-7.922
		c3.438-3.406,5.922-7.828,7.109-12.719h90.766c47.688,0,86.359-38.672,86.359-86.359C512,266.5,488.969,235.094,456.531,222.656z
		 M86.344,340.453c-20.531,0-37.156-16.641-37.156-37.156c0-20.531,16.625-37.172,37.156-37.172s37.172,16.641,37.172,37.172
		C123.516,323.813,106.875,340.453,86.344,340.453z M311.938,383.234c0,0.953-0.344,1.719-0.953,2.344
		c-0.641,0.625-1.391,0.969-2.344,0.969H203.359c-0.953,0-1.703-0.344-2.344-0.969c-0.609-0.625-0.953-1.391-0.969-2.344v-48.594
		c0.016-0.953,0.359-1.703,0.969-2.344c0.641-0.625,1.391-0.969,2.344-0.969h105.281c0.938,0,1.703,0.344,2.344,0.969
		c0.609,0.641,0.953,1.391,0.953,2.344V383.234z M110.281,197.234c-3,0-5.828-1.406-7.641-3.797s-2.422-5.484-1.609-8.375
		l11.297-40.953c8.953-32.453,38.719-55.125,72.375-55.125h142.594c33.656,0,63.422,22.672,72.375,55.109l11.297,40.969
		c0.813,2.891,0.219,5.984-1.609,8.375c-1.813,2.391-4.641,3.797-7.641,3.797H110.281z M425.641,340.453
		c-20.516,0-37.172-16.641-37.172-37.156c0-20.531,16.656-37.172,37.172-37.172c20.531,0,37.172,16.641,37.172,37.172
		C462.813,323.813,446.172,340.453,425.641,340.453z"/>
</g>
</svg>
